<svg xmlns="http://www.w3.org/2000/svg" width="1024" height="1024" viewBox="0 0 1024 1024">
  <!-- folio app icon: the macOS icon grid (824 px continuous-corner tile on 1024) in near black,
       a corner of dithered light like the app's page, and the mark (brand/mark.svg) in white at
       about 58 % of the tile. scripts/gen-mark.py writes this file; scripts/make-icons.sh renders
       every size from it. -->
  <defs>
    <path id="tile" d="M383.41 100 L640.59 100 C722.19 100 763 100 799.79 112.14 L806.92 113.89 C854.88 131.34 892.66 169.12 910.11 217.08 C924 261 924 301.81 924 383.41 L924 640.59 C924 722.19 924 763 911.86 799.79 L910.11 806.92 C892.66 854.88 854.88 892.66 806.92 910.11 C763 924 722.19 924 640.59 924 L383.41 924 C301.81 924 261 924 224.21 911.86 L217.08 910.11 C169.12 892.66 131.34 854.88 113.89 806.92 C100 763 100 722.19 100 640.59 L100 383.41 C100 301.81 100 261 112.14 224.21 L113.89 217.08 C131.34 169.12 169.12 131.34 217.08 113.89 C261 100 301.81 100 383.41 100 Z"/>
    <clipPath id="tile-clip"><use href="#tile"/></clipPath>
  </defs>
  <use href="#tile" fill="#0b0b0b"/>
  <g clip-path="url(#tile-clip)" fill="#fff" fill-opacity="0.16"><rect x="100" y="100" width="11" height="11"/><rect x="116" y="100" width="11" height="11"/><rect x="132" y="100" width="11" height="11"/><rect x="148" y="100" width="11" height="11"/><rect x="164" y="100" width="11" height="11"/><rect x="180" y="100" width="11" height="11"/><rect x="196" y="100" width="11" height="11"/><rect x="228" y="100" width="11" height="11"/><rect x="260" y="100" width="11" height="11"/><rect x="292" y="100" width="11" height="11"/><rect x="324" y="100" width="11" height="11"/><rect x="356" y="100" width="11" height="11"/><rect x="100" y="116" width="11" height="11"/><rect x="116" y="116" width="11" height="11"/><rect x="148" y="116" width="11" height="11"/><rect x="180" y="116" width="11" height="11"/><rect x="212" y="116" width="11" height="11"/><rect x="244" y="116" width="11" height="11"/><rect x="100" y="132" width="11" height="11"/><rect x="116" y="132" width="11" height="11"/><rect x="132" y="132" width="11" height="11"/><rect x="148" y="132" width="11" height="11"/><rect x="164" y="132" width="11" height="11"/><rect x="196" y="132" width="11" height="11"/><rect x="228" y="132" width="11" height="11"/><rect x="260" y="132" width="11" height="11"/><rect x="292" y="132" width="11" height="11"/><rect x="324" y="132" width="11" height="11"/><rect x="116" y="148" width="11" height="11"/><rect x="148" y="148" width="11" height="11"/><rect x="180" y="148" width="11" height="11"/><rect x="212" y="148" width="11" height="11"/><rect x="100" y="164" width="11" height="11"/><rect x="116" y="164" width="11" height="11"/><rect x="132" y="164" width="11" height="11"/><rect x="148" y="164" width="11" height="11"/><rect x="164" y="164" width="11" height="11"/><rect x="180" y="164" width="11" height="11"/><rect x="196" y="164" width="11" height="11"/><rect x="228" y="164" width="11" height="11"/><rect x="260" y="164" width="11" height="11"/><rect x="292" y="164" width="11" height="11"/><rect x="324" y="164" width="11" height="11"/><rect x="356" y="164" width="11" height="11"/><rect x="116" y="180" width="11" height="11"/><rect x="148" y="180" width="11" height="11"/><rect x="180" y="180" width="11" height="11"/><rect x="212" y="180" width="11" height="11"/><rect x="244" y="180" width="11" height="11"/><rect x="100" y="196" width="11" height="11"/><rect x="132" y="196" width="11" height="11"/><rect x="164" y="196" width="11" height="11"/><rect x="196" y="196" width="11" height="11"/><rect x="228" y="196" width="11" height="11"/><rect x="260" y="196" width="11" height="11"/><rect x="292" y="196" width="11" height="11"/><rect x="324" y="196" width="11" height="11"/><rect x="116" y="212" width="11" height="11"/><rect x="148" y="212" width="11" height="11"/><rect x="180" y="212" width="11" height="11"/><rect x="212" y="212" width="11" height="11"/><rect x="100" y="228" width="11" height="11"/><rect x="132" y="228" width="11" height="11"/><rect x="164" y="228" width="11" height="11"/><rect x="196" y="228" width="11" height="11"/><rect x="228" y="228" width="11" height="11"/><rect x="260" y="228" width="11" height="11"/><rect x="292" y="228" width="11" height="11"/><rect x="356" y="228" width="11" height="11"/><rect x="116" y="244" width="11" height="11"/><rect x="148" y="244" width="11" height="11"/><rect x="180" y="244" width="11" height="11"/><rect x="100" y="260" width="11" height="11"/><rect x="132" y="260" width="11" height="11"/><rect x="164" y="260" width="11" height="11"/><rect x="196" y="260" width="11" height="11"/><rect x="228" y="260" width="11" height="11"/><rect x="260" y="260" width="11" height="11"/><rect x="100" y="292" width="11" height="11"/><rect x="132" y="292" width="11" height="11"/><rect x="164" y="292" width="11" height="11"/><rect x="196" y="292" width="11" height="11"/><rect x="228" y="292" width="11" height="11"/><rect x="292" y="292" width="11" height="11"/><rect x="132" y="324" width="11" height="11"/><rect x="196" y="324" width="11" height="11"/><rect x="100" y="356" width="11" height="11"/><rect x="164" y="356" width="11" height="11"/><rect x="228" y="356" width="11" height="11"/></g>
  <use href="#tile" fill="none" stroke="#fff" stroke-opacity="0.16" stroke-width="3"/>
  <g transform="translate(512 512) scale(10.86) translate(-30.5 -32)"><g fill="#fff"><polygon points="13,54 13,17 20,10 37,10 37,18 21,18 21,54"/><polygon points="40,10 48,18 40,18"/><polygon points="23.5,26 41,26 37,33 23.5,33"/><rect x="23.50" y="36.00" width="1.75" height="1.75"/><rect x="25.70" y="36.00" width="1.75" height="1.75"/><rect x="27.90" y="36.00" width="1.75" height="1.75"/><rect x="30.10" y="36.00" width="1.75" height="1.75"/><rect x="32.30" y="36.00" width="1.75" height="1.75"/><rect x="34.50" y="36.00" width="1.75" height="1.75"/><rect x="23.50" y="38.20" width="1.75" height="1.75"/><rect x="25.70" y="38.20" width="1.75" height="1.75"/><rect x="30.10" y="38.20" width="1.75" height="1.75"/><rect x="32.30" y="38.20" width="1.75" height="1.75"/><rect x="34.50" y="38.20" width="1.75" height="1.75"/><rect x="23.50" y="40.40" width="1.75" height="1.75"/><rect x="25.70" y="40.40" width="1.75" height="1.75"/><rect x="27.90" y="40.40" width="1.75" height="1.75"/><rect x="30.10" y="40.40" width="1.75" height="1.75"/><rect x="32.30" y="40.40" width="1.75" height="1.75"/><rect x="34.50" y="40.40" width="1.75" height="1.75"/><rect x="36.70" y="40.40" width="1.75" height="1.75"/><rect x="25.70" y="42.60" width="1.75" height="1.75"/><rect x="30.10" y="42.60" width="1.75" height="1.75"/><rect x="34.50" y="42.60" width="1.75" height="1.75"/><rect x="23.50" y="44.80" width="1.75" height="1.75"/><rect x="25.70" y="44.80" width="1.75" height="1.75"/><rect x="27.90" y="44.80" width="1.75" height="1.75"/><rect x="30.10" y="44.80" width="1.75" height="1.75"/><rect x="32.30" y="44.80" width="1.75" height="1.75"/><rect x="34.50" y="44.80" width="1.75" height="1.75"/><rect x="36.70" y="44.80" width="1.75" height="1.75"/><rect x="23.50" y="47.00" width="1.75" height="1.75"/><rect x="25.70" y="47.00" width="1.75" height="1.75"/><rect x="30.10" y="47.00" width="1.75" height="1.75"/><rect x="34.50" y="47.00" width="1.75" height="1.75"/><rect x="38.90" y="47.00" width="1.75" height="1.75"/><rect x="23.50" y="49.20" width="1.75" height="1.75"/><rect x="25.70" y="49.20" width="1.75" height="1.75"/><rect x="27.90" y="49.20" width="1.75" height="1.75"/><rect x="30.10" y="49.20" width="1.75" height="1.75"/><rect x="32.30" y="49.20" width="1.75" height="1.75"/><rect x="36.70" y="49.20" width="1.75" height="1.75"/><rect x="41.10" y="49.20" width="1.75" height="1.75"/><rect x="25.70" y="51.40" width="1.75" height="1.75"/><rect x="30.10" y="51.40" width="1.75" height="1.75"/><rect x="34.50" y="51.40" width="1.75" height="1.75"/><rect x="38.90" y="51.40" width="1.75" height="1.75"/></g></g>
</svg>
